<svg version="1.1" viewBox="0.0 0.0 960.0 540.0" fill="none" stroke="none" stroke-linecap="square" stroke-miterlimit="10" xmlns:xlink="http://www.w3.org/1999/xlink" xmlns="http://www.w3.org/2000/svg"><clipPath id="g2b4c8019405_0_0.0"><path d="m0 0l960.0 0l0 540.0l-960.0 0l0 -540.0z" clip-rule="nonzero"/></clipPath><g clip-path="url(#g2b4c8019405_0_0.0)"><path fill="#ffe7bf" d="m0 0l960.0 0l0 540.0l-960.0 0z" fill-rule="evenodd"/><path fill="#f1c232" fill-opacity="0.5506" d="m108.59703 258.2693l0 0c0 -11.850082 9.606392 -21.456482 21.456467 -21.456482l99.5605 0c5.690613 0 11.148148 2.2605896 15.172012 6.2844696c4.0238647 4.0238647 6.2844543 9.4814 6.2844543 15.172012l0 85.8233c0 11.850098 -9.606384 21.456482 -21.456467 21.456482l-99.5605 0l0 0c-11.850075 0 -21.456467 -9.606384 -21.456467 -21.456482z" fill-rule="evenodd"/><path fill="#ef3600" fill-opacity="0.7255" d="m44.571224 195.90683l0 0c0 -11.850082 9.606388 -21.456467 21.45647 -21.456467l99.5605 0c5.6905975 0 11.148132 2.2605896 15.172012 6.2844543c4.0238647 4.0238647 6.2844543 9.4814 6.2844543 15.172012l0 85.8233c0 11.850098 -9.6064 21.456482 -21.456467 21.456482l-99.5605 0l0 0c-11.850082 0 -21.45647 -9.606384 -21.45647 -21.456482z" fill-rule="evenodd"/><path fill="#ffff00" fill-opacity="0.4494" d="m108.59703 258.2693l0 0c0 -11.850082 9.606392 -21.456482 21.456467 -21.456482l99.5605 0c5.690613 0 11.148148 2.2605896 15.172012 6.2844696c4.0238647 4.0238647 6.2844543 9.4814 6.2844543 15.172012l0 85.8233c0 11.850098 -9.606384 21.456482 -21.456467 21.456482l-99.5605 0l0 0c-11.850075 0 -21.456467 -9.606384 -21.456467 -21.456482z" fill-rule="evenodd"/><path fill="#000000" fill-opacity="0.0" d="m275.9685 200.62993l670.4252 0l0 138.74016l-670.4252 0z" fill-rule="evenodd"/><path fill="#000000" d="m292.406 314.58994l0 -77.187515l12.015625 0l5.140625 15.421875l0 61.76564l-17.15625 0zm53.234375 0l-45.46875 -58.265625l4.25 -18.92189l45.484375 58.281265l-4.265625 18.90625zm0 0l-4.59375 -15.421875l0 -61.76564l17.171875 0l0 77.187515l-12.578125 0zm51.496582 1.203125q-8.203125 0 -14.8125 -3.65625q-6.609375 -3.671875 -10.4375 -10.0q-3.828125 -6.34375 -3.828125 -14.21875q0 -7.875 3.828125 -14.109375q3.828125 -6.234375 10.375 -9.890625q6.5625 -3.671875 14.875 -3.671875q8.3125 0 14.875 3.609375q6.5625 3.609375 10.375 9.90625q3.828125 6.28125 3.828125 14.15625q0 7.875 -3.828125 14.21875q-3.8125 6.328125 -10.375 10.0q-6.5625 3.65625 -14.875 3.65625zm0 -15.203125q3.609375 0 6.34375 -1.578125q2.734375 -1.59375 4.203125 -4.484375q1.484375 -2.890625 1.484375 -6.609375q0 -3.71875 -1.53125 -6.5q-1.53125 -2.796875 -4.21875 -4.375q-2.671875 -1.59375 -6.28125 -1.59375q-3.5 0 -6.234375 1.59375q-2.734375 1.578125 -4.265625 4.421875q-1.53125 2.84375 -1.53125 6.5625q0 3.609375 1.53125 6.5q1.53125 2.890625 4.265625 4.484375q2.734375 1.578125 6.234375 1.578125zm61.00418 15.203125q-7.328125 0 -12.953125 -3.0q-5.625 -3.015625 -8.796875 -8.3125q-3.171875 -5.3125 -3.171875 -12.1875l0 -30.84375l16.71875 0l0 30.625q0 2.734375 0.921875 4.703125q0.9375 1.953125 2.796875 3.046875q1.859375 1.09375 4.484375 1.09375q3.71875 0 5.90625 -2.34375q2.1875 -2.34375 2.1875 -6.5l0 -30.625l16.734375 0l0 30.734375q0 6.984375 -3.171875 12.296875q-3.171875 5.296875 -8.75 8.3125q-5.578125 3.0 -12.90625 3.0zm35.31845 -1.203125l0 -53.140625l16.71875 0l0 53.140625l-16.71875 0zm16.71875 -29.1875l-6.984375 -5.46875q2.078125 -9.296875 6.984375 -14.4375q4.921875 -5.140625 13.671875 -5.140625q3.828125 0 6.71875 1.15625q2.90625 1.140625 5.09375 3.546875l-9.953125 12.578125q-1.09375 -1.203125 -2.734375 -1.859375q-1.640625 -0.65625 -3.71875 -0.65625q-4.15625 0 -6.625 2.578125q-2.453125 2.5625 -2.453125 7.703125zm29.854858 29.1875l0 -53.140625l16.71875 0l0 53.140625l-16.71875 0zm8.421875 -60.45314q-3.9375 0 -6.515625 -2.671875q-2.5625 -2.6875 -2.5625 -6.515625q0 -3.9375 2.5625 -6.5625q2.578125 -2.625 6.515625 -2.625q3.921875 0 6.4375 2.625q2.515625 2.625 2.515625 6.5625q0 3.828125 -2.515625 6.515625q-2.515625 2.671875 -6.4375 2.671875zm39.456543 61.76564q-4.703125 0 -9.234375 -1.203125q-4.53125 -1.203125 -8.421875 -3.4375q-3.875 -2.25 -6.609375 -5.203125l9.515625 -9.625q2.625 2.84375 6.21875 4.4375q3.609375 1.578125 7.875 1.578125q2.953125 0 4.53125 -0.875q1.59375 -0.875 1.59375 -2.40625q0 -1.96875 -1.921875 -3.0q-1.90625 -1.03125 -4.859375 -1.84375q-2.953125 -0.828125 -6.234375 -1.8125q-3.265625 -0.984375 -6.21875 -2.734375q-2.953125 -1.75 -4.8125 -4.859375q-1.859375 -3.125 -1.859375 -7.9375q0 -5.140625 2.625 -8.90625q2.625 -3.78125 7.421875 -5.953125q4.8125 -2.1875 11.265625 -2.1875q6.78125 0 12.515625 2.34375q5.75 2.34375 9.359375 6.9375l-9.515625 9.625q-2.515625 -2.953125 -5.640625 -4.15625q-3.109375 -1.203125 -6.0625 -1.203125q-2.84375 0 -4.265625 0.828125q-1.421875 0.8125 -1.421875 2.34375q0 1.640625 1.859375 2.625q1.859375 0.984375 4.8125 1.75q2.953125 0.765625 6.234375 1.859375q3.28125 1.09375 6.234375 2.953125q2.953125 1.859375 4.8125 4.984375q1.859375 3.109375 1.859375 8.125q0 7.765625 -5.859375 12.359375q-5.84375 4.59375 -15.796875 4.59375zm65.822205 -1.3125l0 -30.28125q0 -4.15625 -2.578125 -6.71875q-2.5625 -2.578125 -6.5 -2.578125q-2.734375 0 -4.8125 1.15625q-2.078125 1.140625 -3.28125 3.28125q-1.203125 2.125 -1.203125 4.859375l-6.4375 -3.171875q0 -6.234375 2.609375 -10.9375q2.625 -4.703125 7.328125 -7.265625q4.703125 -2.578125 10.828125 -2.578125q6.234375 0 10.9375 2.578125q4.703125 2.5625 7.265625 7.109375q2.5625 4.53125 2.5625 10.546875l0 34.0l-16.71875 0zm-35.09375 0l0 -79.375015l16.71875 0l0 79.375015l-16.71875 0z" fill-rule="nonzero"/><path fill="#000000" d="m691.0195 314.58994l0 -9.40625l21.09375 0q8.421875 0 14.75 -3.65625q6.34375 -3.671875 9.890625 -10.109375q3.5625 -6.453125 3.5625 -14.875q0 -8.3125 -3.609375 -14.75q-3.609375 -6.4531403 -9.953125 -10.062515q-6.328125 -3.609375 -14.640625 -3.609375l-20.984375 0l0 -9.40625l21.203125 0q8.3125 0 15.359375 2.84375q7.046875 2.84375 12.234375 7.984375q5.203125 5.140625 8.09375 12.031265q2.90625 6.875 2.90625 15.078125q0 8.09375 -2.90625 15.03125q-2.890625 6.9375 -8.03125 12.078125q-5.140625 5.140625 -12.1875 7.984375q-7.046875 2.84375 -15.25 2.84375l-21.53125 0zm-6.78125 0l0 -75.875015l10.265625 0l0 75.875015l-10.265625 0zm80.90271 0l0 -75.875015l7.21875 0l32.140686 52.812515l-4.921875 0l32.140625 -52.812515l7.21875 0l0 75.875015l-10.28125 0l0 -57.828125l2.40625 0.65625l-25.359375 41.640625l-7.21875 0l-25.359436 -41.640625l2.28125 -0.65625l0 57.828125l-10.265625 0zm116.53876 0l-30.390625 -75.875015l11.15625 0l25.03125 64.17189l-4.046875 0l25.25 -64.17189l11.046875 0l-30.609375 75.875015l-7.4375 0z" fill-rule="nonzero"/></g></svg>